<svg width="164" height="30" viewBox="0 0 164 30" fill="none" xmlns="http://www.w3.org/2000/svg">
<g clip-path="url(#clip0_1_146)">
<path d="M8.7 0H21.3C26.1 0 30 3.9 30 8.7V21.3C30 23.6075 29.0834 25.8203 27.4518 27.4518C25.8203 29.0834 23.6075 30 21.3 30H8.7C3.9 30 0 26.1 0 21.3V8.7C0 6.39261 0.916605 4.17974 2.54817 2.54817C4.17974 0.916605 6.39261 0 8.7 0ZM8.4 3C6.96783 3 5.59433 3.56892 4.58163 4.58163C3.56892 5.59433 3 6.96783 3 8.4V21.6C3 24.585 5.415 27 8.4 27H21.6C23.0322 27 24.4058 26.4311 25.4184 25.4184C26.4311 24.4058 27 23.0322 27 21.6V8.4C27 5.415 24.585 3 21.6 3H8.4ZM22.875 5.25C23.3722 5.25 23.8492 5.44755 24.2008 5.79918C24.5525 6.15081 24.75 6.62772 24.75 7.125C24.75 7.62228 24.5525 8.09919 24.2008 8.45082C23.8492 8.80245 23.3722 9 22.875 9C22.3778 9 21.9008 8.80245 21.5492 8.45082C21.1975 8.09919 21 7.62228 21 7.125C21 6.62772 21.1975 6.15081 21.5492 5.79918C21.9008 5.44755 22.3778 5.25 22.875 5.25ZM15 7.5C16.9891 7.5 18.8968 8.29017 20.3032 9.6967C21.7098 11.1032 22.5 13.0109 22.5 15C22.5 16.9891 21.7098 18.8968 20.3032 20.3032C18.8968 21.7098 16.9891 22.5 15 22.5C13.0109 22.5 11.1032 21.7098 9.6967 20.3032C8.29017 18.8968 7.5 16.9891 7.5 15C7.5 13.0109 8.29017 11.1032 9.6967 9.6967C11.1032 8.29017 13.0109 7.5 15 7.5ZM15 10.5C13.8065 10.5 12.6619 10.9741 11.818 11.818C10.9741 12.6619 10.5 13.8065 10.5 15C10.5 16.1934 10.9741 17.338 11.818 18.1819C12.6619 19.0259 13.8065 19.5 15 19.5C16.1934 19.5 17.338 19.0259 18.1819 18.1819C19.0259 17.338 19.5 16.1934 19.5 15C19.5 13.8065 19.0259 12.6619 18.1819 11.818C17.338 10.9741 16.1934 10.5 15 10.5Z" fill="#0B0E66"/>
</g>
<g clip-path="url(#clip1_1_146)">
<path d="M163.165 3.52941C161.975 4.14706 160.693 4.55294 159.364 4.74706C160.724 3.81176 161.775 2.32941 162.269 0.547059C160.986 1.42941 159.565 2.04706 158.065 2.4C156.845 0.882353 155.129 0 153.182 0C149.55 0 146.583 3.38824 146.583 7.57059C146.583 8.17059 146.645 8.75294 146.753 9.3C141.251 8.98235 136.352 5.96471 133.091 1.39412C132.519 2.50588 132.195 3.81176 132.195 5.18824C132.195 7.81765 133.354 10.1471 135.146 11.4706C134.049 11.4706 133.029 11.1176 132.133 10.5882V10.6412C132.133 14.3118 134.42 17.3824 137.449 18.0706C136.477 18.3745 135.456 18.4168 134.466 18.1941C134.886 19.6985 135.708 21.0148 136.817 21.9581C137.926 22.9015 139.266 23.4242 140.648 23.4529C138.305 25.5713 135.4 26.7164 132.411 26.7C131.886 26.7 131.36 26.6647 130.835 26.5941C133.771 28.7471 137.264 30 141.004 30C153.182 30 159.874 18.4588 159.874 8.45294C159.874 8.11765 159.874 7.8 159.858 7.46471C161.156 6.40588 162.269 5.06471 163.165 3.52941Z" fill="#0B0E66"/>
</g>
<g clip-path="url(#clip2_1_146)">
<path d="M75 21.4286L87.975 15L75 8.57143V21.4286ZM103.9 4.65C104.225 5.65714 104.45 7.00714 104.6 8.72143C104.775 10.4357 104.85 11.9143 104.85 13.2L105 15C105 19.6929 104.6 23.1429 103.9 25.35C103.275 27.2786 101.825 28.5214 99.575 29.0571C98.4 29.3357 96.25 29.5286 92.95 29.6571C89.7 29.8071 86.725 29.8714 83.975 29.8714L80 30C69.525 30 63 29.6571 60.425 29.0571C58.175 28.5214 56.725 27.2786 56.1 25.35C55.775 24.3429 55.55 22.9929 55.4 21.2786C55.225 19.5643 55.15 18.0857 55.15 16.8L55 15C55 10.3071 55.4 6.85714 56.1 4.65C56.725 2.72143 58.175 1.47857 60.425 0.942857C61.6 0.664286 63.75 0.471429 67.05 0.342857C70.3 0.192857 73.275 0.128571 76.025 0.128571L80 0C90.475 0 97 0.342857 99.575 0.942857C101.825 1.47857 103.275 2.72143 103.9 4.65Z" fill="#0B0E66"/>
</g>
<defs>
<clipPath id="clip0_1_146">
<rect width="30" height="30" fill="white"/>
</clipPath>
<clipPath id="clip1_1_146">
<rect width="34" height="30" fill="white" transform="translate(130)"/>
</clipPath>
<clipPath id="clip2_1_146">
<rect width="50" height="30" fill="white" transform="translate(55)"/>
</clipPath>
</defs>
</svg>
