<svg width="38" height="38" viewBox="0 0 38 38" fill="none" xmlns="http://www.w3.org/2000/svg">
<path d="M25.333 14.25H29.0228C29.4024 14.2447 29.7712 14.3761 30.0619 14.6203C30.3526 14.8645 30.5457 15.2052 30.6058 15.58L33.2499 31.4131C33.2871 31.6412 33.2739 31.8748 33.2112 32.0972C33.1484 32.3197 33.0377 32.5257 32.8868 32.7008C32.7359 32.8759 32.5485 33.0158 32.3377 33.1107C32.1269 33.2056 31.8979 33.2532 31.6668 33.25H6.33297C6.10184 33.2532 5.87284 33.2056 5.66206 33.1107C5.45128 33.0158 5.26385 32.8759 5.11295 32.7008C4.96205 32.5257 4.85135 32.3197 4.78862 32.0972C4.7259 31.8748 4.71268 31.6412 4.74989 31.4131L7.39469 15.58C7.45486 15.2053 7.64784 14.8648 7.93835 14.6206C8.22887 14.3764 8.59753 14.2449 8.97701 14.25H12.6668" stroke="#26C7EA" stroke-width="2" stroke-linecap="round" stroke-linejoin="round"/>
<path d="M25.3329 11.0831C25.3329 9.40344 24.6657 7.7926 23.478 6.60492C22.2903 5.41723 20.6795 4.75 18.9998 4.75C17.3202 4.75 15.7093 5.41723 14.5217 6.60492C13.334 7.7926 12.6667 9.40344 12.6667 11.0831C12.6667 17.4169 18.9998 23.75 18.9998 23.75C18.9998 23.75 25.3329 17.4169 25.3329 11.0831Z" stroke="#0B0E66" stroke-width="2" stroke-linecap="round" stroke-linejoin="round"/>
</svg>
